<?xml version="1.0" encoding="utf-8"?>
<!-- Generator: Adobe Illustrator 23.0.5, SVG Export Plug-In . SVG Version: 6.00 Build 0)  -->
<svg version="1.1" id="Layer_1" xmlns="http://www.w3.org/2000/svg" xmlns:xlink="http://www.w3.org/1999/xlink" x="0px" y="0px"
	 viewBox="0 0 302 348" style="enable-background:new 0 0 302 348;" xml:space="preserve">
<style type="text/css">
	.st0{fill-rule:evenodd;clip-rule:evenodd;fill:#FFFFFF;}
	.st1{fill-rule:evenodd;clip-rule:evenodd;fill:#FFFFFF;fill-opacity:0.64;}
	.st2{fill-rule:evenodd;clip-rule:evenodd;fill:#FFFFFF;fill-opacity:0.48;}
	.st3{fill-rule:evenodd;clip-rule:evenodd;fill:#FFFFFF;fill-opacity:0.32;}
	.st4{fill-rule:evenodd;clip-rule:evenodd;fill:#FFFFFF;fill-opacity:0.24;}
	.st5{fill-rule:evenodd;clip-rule:evenodd;fill:#FFFFFF;fill-opacity:0.16;}
	.st6{fill-rule:evenodd;clip-rule:evenodd;fill:#FFFFFF;fill-opacity:8.000000e-02;}
	.st7{fill-rule:evenodd;clip-rule:evenodd;fill:#FFFFFF;fill-opacity:4.000000e-02;}
	.st8{fill-rule:evenodd;clip-rule:evenodd;fill:url(#SVGID_1_);}
</style>
<g>
	<g>
		<path class="st0" d="M76.9,45.4c0.3-1.1-0.1-1.1-0.4-0.1c-0.1,0.2-0.2,0.4-0.3,0.6c0.2-0.4,0.3-0.9,0.5-1.4v0
			c0.2,0,0.4-0.1,0.6-0.6c0.1-0.2,0.2-0.5,0.3-0.9c0-0.4,0.1-0.8,0-1.3c-0.2-2-1.2-3.9-2.7-5.2c-1.5-1.3-3.4-2-5.4-2
			c-2,0-3.9,0.8-5.4,2.2c-1.5,1.4-2.4,3.3-2.6,5.3c-0.2,2,0.3,4,1.5,5.7c1.1,1.6,2.8,2.7,4.8,3.1c1.9,0.4,3.9,0,5.6-1
			C75.1,48.9,76.3,47.3,76.9,45.4"/>
		<path class="st1" d="M48.5,61c-0.3,1,0.2,1,0.4,0.1c0.1-0.2,0.1-0.4,0.2-0.5c-0.2,0.4-0.3,0.8-0.4,1.2v0c-0.2,0-0.4,0.1-0.6,0.5
			c-0.1,0.2-0.2,0.5-0.2,0.8c0,0.3-0.1,0.7,0,1.2c0.2,1.8,1.1,3.5,2.5,4.8c1.4,1.2,3.3,1.9,5.1,1.9c3.9,0,7.1-3,7.4-6.8
			c0.2-1.8-0.4-3.7-1.5-5.2c-1.1-1.5-2.7-2.5-4.5-2.9c-1.8-0.4-3.6-0.1-5.2,0.8C50.2,57.9,49.1,59.3,48.5,61"/>
		<path class="st2" d="M34.5,73.1c1.4-0.8,2.5-2.2,3.1-3.8c0.2-0.9-0.2-1-0.4-0.2c-0.1,0.2-0.1,0.3-0.2,0.5c0.2-0.4,0.3-0.7,0.4-1.1
			v0c0.2,0,0.4-0.1,0.6-0.5c0.1-0.2,0.2-0.4,0.2-0.7c0-0.3,0.1-0.7,0-1.1c-0.2-1.7-1.1-3.3-2.4-4.5c-1.3-1.1-3-1.8-4.8-1.8
			c-1.7,0-3.4,0.7-4.7,1.9C25,63,24.2,64.6,24,66.4c-0.2,1.7,0.3,3.5,1.4,4.8c1,1.4,2.5,2.3,4.2,2.7C31.3,74.2,33,73.9,34.5,73.1"/>
		<path class="st3" d="M15.6,54c0.2-0.8-0.2-0.8-0.4-0.1C15.1,54,15,54.1,15,54.2c0.1-0.3,0.2-0.6,0.3-0.9v0c0.2,0,0.4-0.1,0.6-0.4
			c0.1-0.2,0.2-0.4,0.2-0.6c0-0.3,0.1-0.6,0-0.9c-0.2-1.5-0.9-2.8-2-3.8C13,46.5,11.5,46,10,46c-1.5,0-3,0.6-4,1.6
			c-1.1,1-1.8,2.4-1.9,3.9c-0.1,1.5,0.3,2.9,1.2,4.1c0.9,1.2,2.2,2,3.6,2.3c1.4,0.3,2.9,0,4.2-0.7C14.2,56.5,15.1,55.3,15.6,54"/>
		<path class="st4" d="M11.1,29.3c0.2-0.6-0.3-0.7-0.4-0.1c0,0.1-0.1,0.2-0.1,0.3c0.1-0.2,0.2-0.5,0.3-0.8v0c0.2,0,0.4,0,0.6-0.3
			c0.2-0.3,0.3-0.7,0.2-1.3c-0.2-1.2-0.9-2.4-1.9-3.3c-1-0.8-2.4-1.3-3.8-1.3c-1.4,0-2.7,0.4-3.7,1.3c-1,0.8-1.6,2-1.7,3.2
			c-0.1,1.2,0.3,2.5,1.1,3.5c0.8,1,2,1.7,3.3,2c1.3,0.3,2.7,0.1,3.8-0.5C9.9,31.3,10.7,30.4,11.1,29.3"/>
		<path class="st5" d="M23.6,9c0.2-0.6-0.3-0.6-0.4-0.1c0,0.1-0.1,0.2-0.1,0.3c0.1-0.2,0.2-0.4,0.2-0.7v0c0.2,0,0.4,0,0.6-0.3
			C24,8,24.2,7.6,24.1,7c-0.1-1.1-0.7-2.1-1.5-2.9c-0.9-0.7-2-1.1-3.1-1.1c-2.3,0-4.3,1.8-4.5,4.1c-0.1,1.1,0.2,2.2,0.9,3.1
			c0.7,0.9,1.6,1.5,2.7,1.7c1.1,0.2,2.2,0,3.1-0.5C22.6,10.8,23.3,10,23.6,9"/>
		<path class="st6" d="M48.7,4.7c0.1-0.4-0.3-0.5-0.4-0.1c0,0,0,0.1,0,0.1c0-0.1,0.1-0.2,0.1-0.4v0c0.2,0,0.4,0,0.5-0.2
			c0.2-0.2,0.3-0.5,0.2-0.9c-0.1-0.9-0.5-1.7-1.2-2.3C47.2,0.3,46.4,0,45.5,0c-1.8,0-3.3,1.4-3.5,3.2c-0.1,0.9,0.2,1.7,0.7,2.4
			c0.5,0.7,1.3,1.1,2.1,1.3c0.8,0.2,1.7,0,2.4-0.4C47.9,6.1,48.4,5.4,48.7,4.7"/>
		<path class="st7" d="M63.3,17c-0.1,0.4,0.3,0.4,0.4,0.1c0,0,0-0.1,0.1-0.1c-0.1,0.1-0.1,0.2-0.1,0.4c-0.2,0-0.4,0-0.5,0.1
			c-0.2,0.1-0.3,0.4-0.2,0.8c0.1,0.8,0.5,1.4,1,1.9c0.6,0.5,1.3,0.8,2.1,0.8c1.6,0,2.8-1.2,3-2.8c0.1-0.7-0.2-1.5-0.6-2.1
			c-0.4-0.6-1.1-1-1.8-1.1c-0.7-0.1-1.4,0-2,0.4C64,15.8,63.5,16.3,63.3,17"/>
	</g>
	
		<linearGradient id="SVGID_1_" gradientUnits="userSpaceOnUse" x1="-153.3985" y1="567.5227" x2="-152.3985" y2="566.6392" gradientTransform="matrix(223.7162 0 0 -65.4288 34376.293 37420.8594)">
		<stop  offset="0" style="stop-color:#FFFFFF"/>
		<stop  offset="1" style="stop-color:#FFFFFF;stop-opacity:0"/>
	</linearGradient>
	<path class="st8" d="M294.2,320.9c-4.7-3.1-10-4.9-15.4-5.5c-2.7-0.3-5.5-0.3-8.2,0l-2,0.3l-2,0.4c-0.7,0.1-1.3,0.3-1.9,0.5
		c-0.6,0.2-1.3,0.3-1.9,0.5c-10.2,3-19,8.4-27.8,12.8c-17.4,8.9-37.1,13.1-56.6,12.6c-19.6-0.6-39-6-55.8-16.1l-1.6-0.9l-1.5-1
		l-3.1-2l-3-2.1l-1.5-1.1l-1.4-1.1l-2.9-2.3l-2.8-2.4c-1.9-1.6-3.6-3.3-5.4-5c-3.4-3.5-6.8-7.1-9.8-11c-1.6-1.9-2.9-3.9-4.4-5.9
		c-0.7-1-1.3-2.1-2-3.1c-0.7-1-1.3-2-1.9-3.1c-2.8-4.8-4.4-4-1.6,0.9c0.6,1.1,1.3,2.2,1.9,3.2c0.7,1.1,1.3,2.1,2,3.2
		c1.4,2,2.8,4.2,4.3,6.1c2.9,4.1,6.3,7.8,9.7,11.5c1.8,1.8,3.5,3.6,5.4,5.3l2.8,2.5l2.9,2.4l1.5,1.2l1.5,1.1l3,2.3l3.1,2.1l1.6,1.1
		l1.6,1c17,10.9,37,17,57.4,18.1c20.3,1,41.1-3,59.5-12.1c9.1-4.4,17.7-9.5,26.8-12.1c4.6-1.3,9.1-1.9,13.6-1.3
		c4.5,0.5,8.9,2,12.6,4.4c3.5,2.4,5.5,4.7,6.9,6.4c0.8,0.8,1.3,1.5,1.8,1.9c0.5,0.4,1,0.6,1.4,0.5c0.4-0.1,0.7-0.5,0.8-1.2
		c0.1-0.7,0.2-1.8-0.1-3.1c-0.1-0.4-0.2-0.7-0.3-1.1c-0.1-0.4-0.3-0.7-0.5-1.1c-0.2-0.4-0.4-0.8-0.6-1.2c-0.2-0.4-0.5-0.8-0.8-1.3
		C298.2,324.2,296.4,322.5,294.2,320.9"/>
</g>
</svg>
